# xmcd
#
# Track frame offsets: 
#        150
#        25007
#        73498
#        94294
#        116213
#        141814
#        180016
#        226941
#        291015
#        322029
#
# Disc length: 4759 seconds
#
# Revision: 2
# Processed by: cddbd v1.5.2PL0 Copyright (c) Steve Scherf et al.
# Submitted via: ExactAudioCopy v1.1
#
DISCID=8d12950a
DTITLE=Taste - What's Going On
DYEAR=2015
DGENRE=Blues
TTITLE0=What's Going On
TTITLE1=Sugar Mama
TTITLE2=Morning Sun
TTITLE3=Gambling Blues
TTITLE4=Sinner Boy
TTITLE5=I'll Remember
TTITLE6=I Feel So Good
TTITLE7=Catfish Blues
TTITLE8=Same Old Story
TTITLE9=Blister On The Moon
EXTD=
EXTT0=
EXTT1=
EXTT2=
EXTT3=
EXTT4=
EXTT5=
EXTT6=
EXTT7=
EXTT8=
EXTT9=
PLAYORDER=
